<?xml version="1.0" encoding="UTF-8"?>
<svg width="49px" height="39px" viewBox="0 0 49 39" version="1.1" xmlns="http://www.w3.org/2000/svg" xmlns:xlink="http://www.w3.org/1999/xlink">
    <!-- Generator: Sketch 42 (36781) - http://www.bohemiancoding.com/sketch -->
    <title>Group 16</title>
    <desc>Created with Sketch.</desc>
    <defs>
        <rect id="path-1" x="0" y="0" width="49" height="33.5403727" rx="3.75652174"></rect>
        <mask id="mask-2" maskContentUnits="userSpaceOnUse" maskUnits="objectBoundingBox" x="0" y="0" width="49" height="33.5403727" fill="white">
            <use xlink:href="#path-1"></use>
        </mask>
    </defs>
    <g id="Page-1" stroke="none" stroke-width="1" fill="none" fill-rule="evenodd">
        <g id="Project-Planner" transform="translate(-209.000000, -2592.000000)">
            <g id="Group-16" transform="translate(209.000000, 2592.000000)">
                <g id="Group-15">
                    <use id="Rectangle" stroke="#333333" mask="url(#mask-2)" stroke-width="3.75652174" xlink:href="#path-1"></use>
                    <rect id="Rectangle-2" fill="#333333" x="10.0512821" y="36.6459627" width="28.8974359" height="1.86335404" rx="0.931677019"></rect>
                    <rect id="Rectangle-2-Copy-4" fill="#333333" x="0" y="27.3291925" width="49" height="1.86335404" rx="0.931677019"></rect>
                    <g id="Group-2" transform="translate(15.705128, 31.428571)" fill="#333333">
                        <rect id="Rectangle-2-Copy" transform="translate(2.386575, 4.024924) rotate(120.000000) translate(-2.386575, -4.024924) " x="-0.754450421" y="3.0932466" width="6.28205128" height="1.86335404" rx="0.626086957"></rect>
                        <rect id="Rectangle-2-Copy-2" transform="translate(14.950678, 4.024924) scale(1, -1) rotate(120.000000) translate(-14.950678, -4.024924) " x="11.8096521" y="3.0932466" width="6.28205128" height="1.86335404" rx="0.931677019"></rect>
                    </g>
                    <g id="Group" transform="translate(11.935897, 8.695652)">
                        <rect id="Rectangle-2-Copy" fill="#E7E7E7" transform="translate(12.408327, 6.521739) rotate(109.500000) translate(-12.408327, -6.521739) " x="6.12627578" y="5.59006211" width="12.5641026" height="1.86335404" rx="0.931677019"></rect>
                        <g id="Group-3" fill="#333333">
                            <rect id="Rectangle-2-Copy-3" transform="translate(4.080686, 4.037267) rotate(134.500000) translate(-4.080686, -4.037267) " x="-0.00264739635" y="3.10559006" width="8.16666667" height="1.86335404" rx="0.931677019"></rect>
                            <rect id="Rectangle-2-Copy-3" transform="translate(4.080686, 8.501548) rotate(-134.500000) translate(-4.080686, -8.501548) " x="-0.00264739635" y="7.56987069" width="8.16666667" height="1.86335404" rx="0.931677019"></rect>
                        </g>
                        <g id="Group-3" transform="translate(21.128205, 6.500000) scale(-1, 1) translate(-21.128205, -6.500000) translate(17.128205, 0.000000)" fill="#333333">
                            <rect id="Rectangle-2-Copy-3" transform="translate(4.080686, 4.037267) rotate(134.500000) translate(-4.080686, -4.037267) " x="-0.00264739635" y="3.10559006" width="8.16666667" height="1.86335404" rx="0.931677019"></rect>
                            <rect id="Rectangle-2-Copy-3" transform="translate(4.080686, 8.501548) rotate(-134.500000) translate(-4.080686, -8.501548) " x="-0.00264739635" y="7.56987069" width="8.16666667" height="1.86335404" rx="0.931677019"></rect>
                        </g>
                    </g>
                    <ellipse id="Oval" fill="#333333" cx="24.5" cy="30.4347826" rx="0.628205128" ry="0.621118012"></ellipse>
                </g>
            </g>
        </g>
    </g>
</svg>