<?xml version="1.0" encoding="UTF-8"?>
<svg width="44px" height="44px" viewBox="0 0 44 44" version="1.1" xmlns="http://www.w3.org/2000/svg" xmlns:xlink="http://www.w3.org/1999/xlink">
    <!-- Generator: Sketch 42 (36781) - http://www.bohemiancoding.com/sketch -->
    <title>1</title>
    <desc>Created with Sketch.</desc>
    <defs></defs>
    <g id="Page-1" stroke="none" stroke-width="1" fill="none" fill-rule="evenodd">
        <g id="Project-Planner" transform="translate(-770.000000, -820.000000)">
            <g id="1" transform="translate(772.000000, 822.000000)">
                <path d="M19.9285551,39.865174 C29.2391848,39.8667439 37.3105092,33.4222753 39.370065,24.3422942 C41.4296208,15.262313 36.9286466,5.96614804 28.5285068,1.9504939 C20.1283669,-2.06516024 10.0672488,0.269653296 4.29415341,7.57439134 C-1.47894197,14.8791294 -1.42579381,25.2074703 4.42217212,32.452408 C3.83804255,34.4263511 2.88505237,36.2716866 1.61366148,37.8907059 C1.31202883,38.2848728 1.26620317,38.8181396 1.49616567,39.2579885 C1.72612817,39.6978374 2.19018744,39.9645254 2.68600191,39.9417698 C5.71255196,39.8772414 8.69572899,39.2088477 11.46047,37.9758123 C14.1196632,39.2273438 17.0236211,39.8726678 19.9625977,39.865174 L19.9285551,39.865174 Z" id="Shape" stroke="#E7E7E7" stroke-width="2.55319149" fill-rule="nonzero"></path>
                <g id="Group" transform="translate(13.617021, 8.510638)" fill="#FBA600">
                    <path d="M6.21276596,22.6382979 C5.13169794,22.6382979 4.25531915,21.7619191 4.25531915,20.6808511 C4.25531915,19.599783 5.13169794,18.7234043 6.21276596,18.7234043 C7.29383398,18.7234043 8.17021277,19.599783 8.17021277,20.6808511 C8.17037428,21.748763 7.31455893,22.6197255 6.24680851,22.6382979 L6.21276596,22.6382979 Z" id="Path"></path>
                    <path d="M0.212570859,3.74471281 C1.30788942,1.45011754 3.62741511,-0.00787003499 6.17001767,3.19595808e-05 L6.17001767,3.19595808e-05 C9.72516336,0.0238990195 12.6371937,2.83112617 12.7912943,6.38301068 C12.8868102,9.30026127 11.0511588,11.9325162 8.28065597,12.8510958 C8.22959214,12.8510958 8.10193256,12.9362022 8.10193256,13.0127979 L8.10193256,14.5532234 C8.03414313,15.577383 7.18365236,16.3734406 6.15725171,16.3734406 C5.13085106,16.3734406 4.28036029,15.577383 4.21257086,14.5532234 L4.21257086,13.0213086 C4.23209719,11.2658156 5.36882194,9.71822645 7.03810277,9.17450004 C8.17909248,8.79153466 8.93341052,7.70503987 8.89342192,6.50215962 C8.81734428,5.0335347 7.61493767,3.87579954 6.14448575,3.85535111 C5.10323333,3.86216205 4.15761413,4.46391972 3.7104432,5.40428728 C3.41056334,6.0377099 2.79368345,6.4613522 2.09482713,6.51381169 C1.39597082,6.56627119 0.722759,6.23946934 0.331677065,5.6579136 C-0.0594048707,5.07635787 -0.108131958,4.32960539 0.204060221,3.70215962 L0.212570859,3.74471281 Z" id="Path"></path>
                </g>
            </g>
        </g>
    </g>
</svg>