<?xml version="1.0" encoding="UTF-8"?>
<svg width="71px" height="40px" viewBox="0 0 71 40" version="1.1" xmlns="http://www.w3.org/2000/svg" xmlns:xlink="http://www.w3.org/1999/xlink">
    <!-- Generator: Sketch 42 (36781) - http://www.bohemiancoding.com/sketch -->
    <title>&amp;Co.</title>
    <desc>Created with Sketch.</desc>
    <defs></defs>
    <g id="Page-1" stroke="none" stroke-width="1" fill="none" fill-rule="evenodd">
        <g id="About" transform="translate(-131.000000, -2916.000000)" fill="#333333">
            <g id="&amp;Co." transform="translate(131.000000, 2916.000000)">
                <g id="Group">
                    <g id="Logo">
                        <path d="M64.8733427,30.989011 L57.6907753,30.989011 L57.6907753,39.4845688 L64.8733427,39.4845688 L64.8733427,30.989011 Z M63.0698668,8.20052937 L63.0698668,20.2168281 C63.0698668,21.1546494 62.6278627,21.5959771 61.6886039,21.5959771 L60.5835935,21.5959771 C59.6443347,21.5959771 59.2023306,21.1546494 59.2023306,20.2168281 L59.2023306,8.20052937 C59.2023306,7.26270805 59.6443347,6.82138037 60.5835935,6.82138037 L61.6886039,6.82138037 C62.6278627,6.82138037 63.0698668,7.26270805 63.0698668,8.20052937 Z M70.8049394,21.0443175 L70.8049394,7.37303997 C70.8049394,2.57360147 68.4291671,0.201465201 63.622372,0.201465201 L58.6498254,0.201465201 C53.8430303,0.201465201 51.467258,2.57360147 51.467258,7.37303997 L51.467258,21.0443175 C51.467258,25.843756 53.8430303,28.2158923 58.6498254,28.2158923 L63.622372,28.2158923 C68.4291671,28.2158923 70.8049394,25.843756 70.8049394,21.0443175 Z M41.3564132,22.1023512 L41.3564132,31.4805644 C41.3564132,32.4183857 40.914409,32.8597134 39.9751502,32.8597134 L38.9806409,32.8597134 C38.0413821,32.8597134 37.5993779,32.4183857 37.5993779,31.4805644 L37.5993779,8.20052937 C37.5993779,7.26270805 38.0413821,6.82138037 38.9806409,6.82138037 L39.8646492,6.82138037 C40.803908,6.82138037 41.2459121,7.26270805 41.2459121,8.20052937 L41.2459121,16.4202574 L48.8704837,16.4202574 L48.8704837,7.37303997 C48.8704837,2.57360147 46.4947114,0.201465201 41.6879163,0.201465201 L37.0468728,0.201465201 C32.2400777,0.201465201 29.8643054,2.57360147 29.8643054,7.37303997 L29.8643054,32.3080538 C29.8643054,37.1074923 32.2400777,39.4796286 37.0468728,39.4796286 L41.7984173,39.4796286 C46.6052124,39.4796286 48.9809847,37.1074923 48.9809847,32.3080538 L48.9809847,22.1023512 L41.3564132,22.1023512 Z M21.0404067,22.6534573 L21.0404067,16.2307603 L9.98962991,16.2307603 C9.0549871,16.2307603 8.61515519,15.7916015 8.61515519,14.8583891 L8.61515519,8.16121791 C8.61515519,7.22800552 9.0549871,6.78884675 9.98962991,6.78884675 L10.4294618,6.78884675 C11.3641046,6.78884675 11.8039366,7.22800552 11.8039366,8.16121791 L11.8039366,12.8821747 L19.2261001,12.8821747 L19.2261001,7.33779521 C19.2261001,2.56194359 16.8620036,0.201465201 12.0788315,0.201465201 L8.12034429,0.201465201 C3.33717223,0.201465201 0.973075701,2.56194359 0.973075701,7.33779521 L0.973075701,13.3762283 C0.973075701,16.6699191 2.12763447,18.3167645 4.16185707,19.0852923 C1.85273953,19.7440305 0.863117723,21.2261913 0.863117723,24.0258285 L0.863117723,32.1502657 C0.863117723,36.9261173 3.22721425,39.2865957 8.01038631,39.2865957 L12.1887895,39.2865957 C16.9719615,39.2865957 19.3360581,36.9261173 19.3360581,32.1502657 L19.3360581,22.6534573 L21.0404067,22.6534573 Z M8.50519721,24.0258285 C8.50519721,23.0926161 8.94502912,22.6534573 9.87967194,22.6534573 L11.9138945,22.6534573 L11.9138945,31.326843 C11.9138945,32.2600554 11.4740626,32.6992142 10.5394198,32.6992142 L9.87967194,32.6992142 C8.94502912,32.6992142 8.50519721,32.2600554 8.50519721,31.326843 L8.50519721,24.0258285 Z" id="BROS.-&amp;-CO."></path>
                    </g>
                </g>
            </g>
        </g>
    </g>
</svg>