<?xml version="1.0" encoding="UTF-8"?>
<svg width="187px" height="38px" viewBox="0 0 187 38" version="1.1" xmlns="http://www.w3.org/2000/svg" xmlns:xlink="http://www.w3.org/1999/xlink">
    <!-- Generator: Sketch 42 (36781) - http://www.bohemiancoding.com/sketch -->
    <title>Group</title>
    <desc>Created with Sketch.</desc>
    <defs></defs>
    <g id="Page-1" stroke="none" stroke-width="1" fill="none" fill-rule="evenodd">
        <g id="About" transform="translate(-503.000000, -1907.000000)" fill="#333333">
            <g id="Group-3" transform="translate(335.000000, 1895.000000)">
                <g id="Group" transform="translate(168.000000, 12.000000)">
                    <g id="Logo">
                        <path d="M181.78253,29.6446442 L175.132231,29.6446442 L175.132231,37.5175528 L181.78253,37.5175528 L181.78253,29.6446442 Z M183.787962,13.8623341 L177.422064,10.5543414 C176.520229,10.1083199 176.148885,9.69946685 176.148885,8.88176078 L176.148885,8.51628338 C176.148885,7.8844196 176.573278,7.58707194 177.475114,7.58707194 L178.058654,7.58707194 C178.96049,7.58707194 179.384883,7.8844196 179.384883,8.51628338 L179.384883,10.0071349 L186.652615,10.0071349 L186.652615,5.94545262 C186.652615,2.7117968 184.371502,1.11355311 179.756227,1.11355311 L175.724492,1.11355311 C171.109216,1.11355311 168.828103,2.7117968 168.828103,5.94545262 L168.828103,10.0711514 C168.828103,11.9295743 169.517742,13.0074596 171.798855,14.1596818 L178.164752,17.4676745 C179.066588,17.913696 179.437932,18.322549 179.437932,19.1402551 L179.437932,20.1747647 C179.437932,20.8066285 179.013539,21.1039762 178.111703,21.1039762 L177.422064,21.1039762 C176.520229,21.1039762 176.095836,20.8066285 176.095836,20.1747647 L176.095836,17.9033756 L168.828103,17.9033756 L168.828103,22.7455955 C168.828103,25.9792513 171.109216,27.577495 175.724492,27.577495 L179.862325,27.577495 C184.477601,27.577495 186.758714,25.9792513 186.758714,22.7455955 L186.758714,17.9508645 C186.758714,16.0181047 186.069075,15.0145563 183.787962,13.8623341 Z M166.576175,29.6446442 L129.174161,29.6446442 L129.174161,37.5175528 L166.576175,37.5175528 L166.576175,29.6446442 Z M159.414314,8.52635666 L159.414314,19.6619671 C159.414314,20.5310544 159.005065,20.9400366 158.135411,20.9400366 L157.112288,20.9400366 C156.242633,20.9400366 155.833384,20.5310544 155.833384,19.6619671 L155.833384,8.52635666 C155.833384,7.65726935 156.242633,7.24828708 157.112288,7.24828708 L158.135411,7.24828708 C159.005065,7.24828708 159.414314,7.65726935 159.414314,8.52635666 Z M166.576175,20.4288088 L166.576175,7.75951491 C166.576175,3.31183279 164.37646,1.11355311 159.925876,1.11355311 L155.321823,1.11355311 C150.871238,1.11355311 148.671524,3.31183279 148.671524,7.75951491 L148.671524,20.4288088 C148.671524,24.8764909 150.871238,27.0747706 155.321823,27.0747706 L159.925876,27.0747706 C164.37646,27.0747706 166.576175,24.8764909 166.576175,20.4288088 Z M139.303355,8.8968987 L139.303355,11.3512385 C139.303355,12.2160547 138.896118,12.623027 138.030737,12.623027 L136.299976,12.623027 L136.299976,7.6251102 L138.030737,7.6251102 C138.896118,7.6251102 139.303355,8.03208252 139.303355,8.8968987 Z M143.375734,15.3192186 C145.310114,14.6070171 146.430019,13.0808709 146.430019,10.0285785 L146.430019,8.03208252 C146.430019,3.60625856 144.241115,1.41878235 139.812403,1.41878235 L129.173313,1.41878235 L129.173313,26.5906561 L136.299976,26.5906561 L136.299976,18.6767403 L138.081642,18.6767403 C138.947022,18.6767403 139.35426,18.3878323 139.35426,19.2526485 L139.35426,26.5906561 L146.480923,26.5906561 L146.480923,19.2017769 C146.480923,16.6073284 145.564638,15.9296771 143.375734,15.3192186 Z M116.752557,21.9200129 L118.534223,21.9200129 C119.399603,21.9200129 119.806841,22.3269852 119.806841,23.1918014 L119.806841,29.6524869 C119.806841,30.5173031 119.399603,30.9242754 118.534223,30.9242754 L116.752557,30.9242754 L116.752557,21.9200129 Z M119.705032,8.79515562 L119.705032,14.6962542 C119.705032,15.5610704 119.297794,15.9680427 118.432413,15.9680427 L116.752557,15.9680427 L116.752557,7.52336712 L118.432413,7.52336712 C119.297794,7.52336712 119.705032,7.93033944 119.705032,8.79515562 Z M123.828315,18.6133628 C125.711791,17.9011612 126.78079,16.375015 126.78079,13.3227227 L126.78079,8.03208252 C126.78079,3.60625856 124.591886,1.41878235 120.163174,1.41878235 L109.676798,1.41878235 L109.676798,37.0288602 L120.264984,37.0288602 C124.693696,37.0288602 126.8826,34.841384 126.8826,30.41556 L126.8826,23.1918014 C126.8826,20.5973528 125.966314,19.2238213 123.828315,18.6133628 Z" id="BROS.-&amp;-CO."></path>
                        <path d="M14.2246116,17.5901987 C16.1178153,16.8743185 17.1923363,15.3402896 17.1923363,12.2722317 L17.1923363,6.9542646 C17.1923363,2.50558063 14.9921266,0.306805791 10.5405395,0.306805791 L0,0.306805791 L0,36.1008148 L10.6428749,36.1008148 C15.094462,36.1008148 17.2946717,33.9020399 17.2946717,29.453356 L17.2946717,22.1922856 C17.2946717,19.5844363 16.3736537,18.2038103 14.2246116,17.5901987 Z M10.0800305,7.72127908 L10.0800305,13.6528577 C10.0800305,14.5221408 9.67068919,14.9312152 8.80083884,14.9312152 L7.11230581,14.9312152 L7.11230581,6.44292162 L8.80083884,6.44292162 C9.67068919,6.44292162 10.0800305,6.85199601 10.0800305,7.72127908 Z M7.11230581,20.9139281 L8.90317418,20.9139281 C9.77302453,20.9139281 10.1823659,21.3230025 10.1823659,22.1922856 L10.1823659,28.6863415 C10.1823659,29.5556246 9.77302453,29.9646989 8.90317418,29.9646989 L7.11230581,29.9646989 L7.11230581,20.9139281 Z M37.1988944,0.306805791 L30.0354209,0.306805791 L30.0354209,28.9931473 C30.0354209,29.8624304 29.6260796,30.2715047 28.7562292,30.2715047 L27.9887142,30.2715047 C27.1188639,30.2715047 26.7095225,29.8624304 26.7095225,28.9931473 L26.7095225,0.306805791 L19.5460491,0.306805791 L19.5460491,29.7601618 C19.5460491,34.2088457 21.7462588,36.4076206 26.1978459,36.4076206 L30.5470976,36.4076206 C34.9986847,36.4076206 37.1988944,34.2088457 37.1988944,29.7601618 L37.1988944,0.306805791 Z M53.9818894,19.175362 C55.9262608,18.4594818 57.0519495,16.9254528 57.0519495,13.8573949 L57.0519495,6.9542646 C57.0519495,2.50558063 54.8517398,0.306805791 50.4001527,0.306805791 L39.7061101,0.306805791 L39.7061101,36.1008148 L46.8695836,36.1008148 L46.8695836,22.5502257 L48.660452,22.5502257 C49.5303023,22.5502257 49.9396437,22.9593 49.9396437,23.8285831 L49.9396437,36.1008148 L57.1031171,36.1008148 L57.1031171,23.7774488 C57.1031171,21.1695996 56.1820991,19.7889735 53.9818894,19.175362 Z M49.888476,7.82354768 L49.888476,15.1868867 C49.888476,16.0561697 49.4791347,16.4652441 48.6092843,16.4652441 L46.8695836,16.4652441 L46.8695836,6.54519021 L48.6092843,6.54519021 C49.4791347,6.54519021 49.888476,6.9542646 49.888476,7.82354768 Z M77.0073399,36.1008148 L77.0073399,0.306805791 L70.8160521,0.306805791 L70.8672198,7.72127908 L70.9695551,18.0504074 L66.824974,0.306805791 L59.5079975,0.306805791 L59.5079975,36.1008148 L65.6992853,36.1008148 L65.59695,25.7205522 L65.4946147,16.618647 L70.0485371,36.1008148 L77.0073399,36.1008148 Z M93.7903349,17.5390644 L87.6502148,12.9881118 C86.7803644,12.3745002 86.4221907,11.812023 86.4221907,10.6870684 L86.4221907,7.31220469 C86.4221907,6.44292162 86.8315321,6.03384723 87.7013824,6.03384723 L88.2642268,6.03384723 C89.1340771,6.03384723 89.5434185,6.44292162 89.5434185,7.31220469 L89.5434185,13.192649 L96.5533889,13.192649 L96.5533889,6.64745881 C96.5533889,2.19877484 94.3531792,0 89.9015921,0 L86.0128494,0 C81.5612623,0 79.3610526,2.19877484 79.3610526,6.64745881 L79.3610526,12.323366 C79.3610526,14.8800809 80.0262323,16.3629755 82.226442,17.9481388 L88.3665621,22.4990914 C89.2364125,23.1127029 89.5945861,23.6751802 89.5945861,24.8001348 L89.5945861,29.0954159 C89.5945861,29.9646989 89.1852448,30.3737733 88.3153944,30.3737733 L87.6502148,30.3737733 C86.7803644,30.3737733 86.3710231,29.9646989 86.3710231,29.0954159 L86.3710231,22.1411513 L79.3610526,22.1411513 L79.3610526,29.7601618 C79.3610526,34.2088457 81.5612623,36.4076206 86.0128494,36.4076206 L90.0039275,36.4076206 C94.4555146,36.4076206 96.6557243,34.2088457 96.6557243,29.7601618 L96.6557243,23.1638372 C96.6557243,20.5048537 95.9905446,19.1242277 93.7903349,17.5390644 Z" id="BURNS-Copy-6"></path>
                    </g>
                </g>
            </g>
        </g>
    </g>
</svg>